<svg xmlns="http://www.w3.org/2000/svg" viewBox="0 0 1200 200" preserveAspectRatio="none" aria-hidden="true">
  <!-- Far ridge -->
  <path
    fill="#2A4035"
    fill-opacity="0.55"
    d="M0 200 L0 120 L80 95 L160 130 L240 70 L320 110 L400 50 L480 100 L560 65 L640 120 L720 40 L800 95 L880 75 L960 130 L1040 85 L1120 115 L1200 90 L1200 200 Z"
  />
  <!-- Near ridge -->
  <path
    fill="#3D5C4A"
    fill-opacity="0.45"
    d="M0 200 L0 145 L100 115 L200 150 L300 100 L420 140 L520 90 L640 145 L760 105 L880 150 L1000 110 L1100 140 L1200 120 L1200 200 Z"
  />
  <!-- Gold ridgeline -->
  <path
    fill="none"
    stroke="#C4A35A"
    stroke-opacity="0.35"
    stroke-width="1.5"
    d="M0 120 L80 95 L160 130 L240 70 L320 110 L400 50 L480 100 L560 65 L640 120 L720 40 L800 95 L880 75 L960 130 L1040 85 L1120 115 L1200 90"
  />
</svg>
